HIERARCHY
ROOT Hips
{
	OFFSET 0.00000 0.00000 0.00000
	CHANNELS 6 Xposition Yposition Zposition Zrotation Yrotation Xrotation 
	JOINT LHipJoint
	{
		OFFSET 0 0 0
		CHANNELS 3 Zrotation Yrotation Xrotation
		JOINT LeftUpLeg
		{
			OFFSET 1.62329 -1.80800 0.67318
			CHANNELS 3 Zrotation Yrotation Xrotation
			JOINT LeftLeg
			{
				OFFSET 2.57139 -7.06484 0.00000
				CHANNELS 3 Zrotation Yrotation Xrotation
				JOINT LeftFoot
				{
					OFFSET 2.52017 -6.92413 0.00000
					CHANNELS 3 Zrotation Yrotation Xrotation
					JOINT LeftToeBase
					{
						OFFSET 0.23295 -0.64001 2.10214
						CHANNELS 3 Zrotation Yrotation Xrotation
						End Site
						{
							OFFSET 0.00000 -0.00000 1.10139
						}
					}
				}
			}
		}
	}
	JOINT RHipJoint
	{
		OFFSET 0 0 0
		CHANNELS 3 Zrotation Yrotation Xrotation
		JOINT RightUpLeg
		{
			OFFSET -1.48061 -1.80800 0.67318
			CHANNELS 3 Zrotation Yrotation Xrotation
			JOINT RightLeg
			{
				OFFSET -2.63258 -7.23296 0.00000
				CHANNELS 3 Zrotation Yrotation Xrotation
				JOINT RightFoot
				{
					OFFSET -2.54779 -7.00000 0.00000
					CHANNELS 3 Zrotation Yrotation Xrotation
					JOINT RightToeBase
					{
						OFFSET -0.23067 -0.63376 2.12161
						CHANNELS 3 Zrotation Yrotation Xrotation
						End Site
						{
							OFFSET -0.00000 -0.00000 1.11000
						}
					}
				}
			}
		}
	}
	JOINT LowerBack
	{
		OFFSET 0 0 0
		CHANNELS 3 Zrotation Yrotation Xrotation
		JOINT Spine
		{
			OFFSET -0.02108 2.07573 -0.16981
			CHANNELS 3 Zrotation Yrotation Xrotation
			JOINT Spine1
			{
				OFFSET 0.05070 2.08439 -0.03141
				CHANNELS 3 Zrotation Yrotation Xrotation
				JOINT Neck
				{
					OFFSET 0 0 0
					CHANNELS 3 Zrotation Yrotation Xrotation
					JOINT Neck1
					{
						OFFSET -0.10731 1.60408 0.31370
						CHANNELS 3 Zrotation Yrotation Xrotation
						JOINT Head
						{
							OFFSET 0.08411 1.65679 -0.30822
							CHANNELS 3 Zrotation Yrotation Xrotation
							End Site
							{
								OFFSET 0.03911 1.69149 -0.14146
							}
						}
					}
				}
				JOINT LeftShoulder
				{
					OFFSET 0 0 0
					CHANNELS 3 Zrotation Yrotation Xrotation
					JOINT LeftArm
					{
						OFFSET 3.52315 0.73219 -0.54694
						CHANNELS 3 Zrotation Yrotation Xrotation
						JOINT LeftForeArm
						{
							OFFSET 5.32462 -0.00000 -0.00000
							CHANNELS 3 Zrotation Yrotation Xrotation
							JOINT LeftHand
							{
								OFFSET 3.48402 -0.00000 -0.00000
								CHANNELS 3 Zrotation Yrotation Xrotation
								JOINT LeftFingerBase
								{
									OFFSET 0 0 0
									CHANNELS 3 Zrotation Yrotation Xrotation
									JOINT LeftHandIndex1
									{
										OFFSET 0.57248 -0.00000 -0.00000
										CHANNELS 3 Zrotation Yrotation Xrotation
										End Site
										{
											OFFSET 0.46154 -0.00000 -0.00000
										}
									}
								}
								JOINT LThumb
								{
									OFFSET 0 0 0
									CHANNELS 3 Zrotation Yrotation Xrotation
									End Site
									{
										OFFSET 0.46859 -0.00000 0.46859
									}
								}
							}
						}
					}
				}
				JOINT RightShoulder
				{
					OFFSET 0 0 0
					CHANNELS 3 Zrotation Yrotation Xrotation
					JOINT RightArm
					{
						OFFSET -3.41766 0.93592 -0.10019
						CHANNELS 3 Zrotation Yrotation Xrotation
						JOINT RightForeArm
						{
							OFFSET -5.33589 -0.00000 -0.00000
							CHANNELS 3 Zrotation Yrotation Xrotation
							JOINT RightHand
							{
								OFFSET -3.64134 -0.00000 -0.00000
								CHANNELS 3 Zrotation Yrotation Xrotation
								JOINT RightFingerBase
								{
									OFFSET 0 0 0
									CHANNELS 3 Zrotation Yrotation Xrotation
									JOINT RightHandIndex1
									{
										OFFSET -0.73481 -0.00000 -0.00000
										CHANNELS 3 Zrotation Yrotation Xrotation
										End Site
										{
											OFFSET -0.59242 -0.00000 -0.00000
										}
									}
								}
								JOINT RThumb
								{
									OFFSET 0 0 0
									CHANNELS 3 Zrotation Yrotation Xrotation
									End Site
									{
										OFFSET -0.60147 -0.00000 0.60147
									}
								}
							}
						}
					}
				}
			}
		}
	}
}
MOTION
Frames: 11
Frame Time: 0.0333333
1.3241 17.6376 12.3966 0 0 0 0 0 0 -21 0 0 0 0 0 0 0 0 0 0 0 0 0 0 21 0 0 0 0 0 0 0 0 0 0 0 0 0 0 0 0 0 0 0 0 0 0 -16 0 0 21 0 0 11 0 0 0 -8 0 0 0 0 0 0 0 0 0 0 0 0 0 0 0 0 0 0 0 0 8 0 0 0 0 0 0 0 0 0 0 0 0 0 0 0 0 0
1.7903 33.3851 -4.5437 180.9510 -22.3959 -166.5700 0.0000 0.0000 0.0000 -23.4917 -0.7516 -29.2726 3.2327 11.0625 32.4910 0.5098 -4.6282 -12.7058 0.2985 -3.5133 -9.7112 0.0000 0.0000 0.0000 20.7478 11.6200 -23.5548 -5.7489 -14.1805 43.9654 -1.9003 7.4550 -24.7480 -0.2027 2.8989 -7.9973 -5.7788 -4.2061 6.2312 1.1574 -6.0274 -1.4761 4.9934 -2.8242 -4.3069 -13.6144 -3.4544 -25.6678 6.9193 -1.9610 26.3228 4.6238 -1.4455 13.3718 0.0000 -0.0000 0.0000 -86.5892 -12.3158 44.1462 40.6076 -48.4258 -18.8925 -0.0000 0.0000 -5.3312 21.1244 14.4789 5.5176 -7.1250 0.0000 -0.0000 -5.9701 45.3686 -0.0545 0.0000 -0.0000 0.0000 77.7098 -15.6189 38.0606 -109.7861 58.4678 -77.0471 0.0000 0.0000 52.7733 27.7879 -2.7733 -1.4606 7.1250 -0.0000 -0.0000 39.7188 -29.7615 19.4042
1.7839 33.4782 -4.6219 180.3810 -21.2248 -166.9650 0.0000 0.0000 0.0000 -24.0226 -1.0878 -26.9696 2.8776 10.4943 30.5927 0.4671 -2.3498 -12.3147 0.3954 -4.0376 -11.1823 0.0000 0.0000 0.0000 20.4679 10.7499 -23.4745 -4.8696 -13.2355 40.2564 -1.8302 8.1203 -24.2551 -0.1665 2.6291 -7.2479 -5.9917 -4.2219 6.3369 0.9449 -6.0853 -1.5064 4.9062 -2.8461 -4.3935 -13.9561 -2.9618 -25.5418 6.9320 -1.2097 26.8988 4.8407 -1.2025 13.4914 0.0000 -0.0000 0.0000 -86.2761 -11.0192 42.6842 39.7840 -47.9414 -18.2787 -0.0000 0.0000 -4.3913 21.7431 14.7213 5.7870 -7.1250 0.0000 -0.0000 -5.4467 45.7031 -0.0948 0.0000 -0.0000 0.0000 76.5842 -14.4345 42.8284 -117.4606 56.9495 -83.5380 0.0000 0.0000 53.5987 34.5108 -5.4971 -3.7683 7.1250 -0.0000 -0.0000 43.9667 -30.7376 21.7964
1.8041 33.5243 -4.7323 180.3990 -19.4492 -167.8510 0.0000 0.0000 0.0000 -23.9370 -0.4642 -25.1854 2.7194 10.2263 29.7126 0.4551 -0.6278 -12.5407 0.4683 -4.3894 -12.1749 0.0000 0.0000 0.0000 21.1996 9.7948 -22.3858 -4.1580 -12.3677 37.0454 -1.5517 6.3735 -22.3398 -0.0314 1.1430 -3.1423 -6.3039 -3.9463 5.9145 0.9646 -5.7053 -1.2692 5.0205 -2.6748 -3.9222 -14.2916 -2.5357 -25.5112 6.8515 -0.5099 27.5071 5.0108 -0.9999 13.6497 -0.0000 -0.0000 0.0000 -85.8959 -9.4217 41.2448 40.1742 -48.1727 -18.5689 -0.0000 0.0000 -3.7004 21.2078 14.9251 5.7072 -7.1250 0.0000 -0.0000 -5.9858 45.8493 -0.1259 -0.0000 -0.0000 0.0000 75.5174 -11.8558 46.7092 -123.1618 55.4068 -88.2761 0.0000 0.0000 54.4865 42.7941 -7.0396 -6.4733 7.1250 -0.0000 -0.0000 46.9396 -29.2592 28.2075
1.8174 33.5558 -4.8080 180.1650 -18.1132 -167.9040 0.0000 0.0000 0.0000 -24.0429 -0.9101 -24.0769 2.5880 9.9961 28.9641 0.4069 1.3003 -12.5925 0.6394 -5.1158 -14.2390 0.0000 0.0000 0.0000 21.4729 8.7992 -22.4781 -3.7668 -11.8435 35.1805 -1.1506 2.1429 -19.6769 -0.6032 -4.9714 13.8270 -5.9281 -3.7851 5.2309 0.7409 -5.4384 -1.5060 4.5171 -2.5522 -3.8737 -14.5033 -2.1498 -25.3181 6.7962 0.0166 28.2722 5.1420 -0.8786 13.8632 0.0000 -0.0000 0.0000 -85.1276 -8.5373 40.5958 39.3658 -47.6896 -17.9688 -0.0000 0.0000 -3.1444 21.7406 14.5528 5.7219 -7.1250 0.0000 -0.0000 -5.4152 45.5244 -0.0703 0.0000 -0.0000 0.0000 75.1898 -8.9058 50.3845 -127.4495 53.9738 -91.7758 0.0000 0.0000 55.9092 52.3199 -7.6582 -9.7898 7.1250 -0.0000 -0.0000 46.5550 -22.9464 41.6632
1.8550 33.5526 -4.8784 179.7410 -16.8053 -168.2260 0.0000 0.0000 0.0000 -24.3392 -0.6476 -23.1782 2.5173 9.8693 28.5546 0.3310 2.9434 -12.3551 0.9864 -6.3215 -17.7202 0.0000 0.0000 0.0000 21.7227 7.8137 -21.8360 -3.7085 -11.7621 34.8954 -1.0711 2.7240 -18.8413 -0.8425 -5.8546 16.3632 -6.1448 -3.4676 4.6599 0.7075 -4.9949 -1.5157 4.5314 -2.3384 -3.5993 -14.7324 -1.9056 -25.1375 6.4905 0.4399 28.9203 5.1477 -0.8360 14.0508 -0.0000 0.0000 0.0000 -84.6664 -7.9234 40.1302 39.2462 -47.6169 -17.8804 -0.0000 0.0000 -2.6208 21.3433 14.9715 5.7643 -7.1250 0.0000 -0.0000 -5.8697 45.9157 -0.1331 -0.0000 0.0000 0.0000 74.9489 -5.0308 52.8506 -129.7226 53.1068 -93.6041 0.0000 0.0000 57.1467 62.0399 -6.8790 -12.7152 7.1250 -0.0000 -0.0000 43.2999 -5.6699 63.7002
1.9030 33.5492 -4.9268 179.2000 -15.4005 -168.7590 0.0000 0.0000 0.0000 -24.6078 -0.1915 -22.0031 2.4833 9.8074 28.3554 0.4034 2.7264 -13.3090 0.6944 -5.3270 -14.8436 0.0000 0.0000 0.0000 21.3333 8.6040 -20.4962 -3.6237 -11.6420 34.4770 -1.0585 2.9348 -18.6862 -1.2324 -7.0403 19.8349 -6.3408 -3.0996 4.6421 0.5780 -4.5264 -1.6069 4.4826 -2.0956 -3.7374 -14.9301 -1.6096 -24.7665 6.2099 0.8664 29.5698 5.1532 -0.7967 14.2005 0.0000 -0.0000 0.0000 -84.1422 -6.7599 39.5771 39.7759 -47.9366 -18.2727 -0.0000 0.0000 -1.5670 22.3669 15.4125 6.2411 -7.1250 0.0000 -0.0000 -5.0055 46.5182 -0.1880 0.0000 -0.0000 0.0000 75.2295 -1.0138 54.8755 -129.8736 53.0464 -93.7249 0.0000 0.0000 58.1518 70.3337 -5.4536 -14.8918 7.1250 -0.0000 -0.0000 44.8556 15.7110 82.7205
1.9441 33.5363 -4.9797 179.2930 -14.4230 -169.2090 0.0000 0.0000 0.0000 -24.3117 0.1034 -21.7585 2.5336 9.8987 28.6492 0.3915 2.9254 -13.2583 0.9007 -6.0483 -16.9247 0.0000 0.0000 0.0000 21.3780 9.4800 -19.3735 -3.5099 -11.4780 33.9095 -0.9966 1.9181 -18.3213 -0.2432 -3.1736 8.7624 -5.5852 -2.9429 4.2275 0.6889 -4.2321 -1.4949 4.1274 -1.9766 -3.4641 -15.2995 -1.3774 -24.8682 5.9385 1.3965 30.1367 5.2162 -0.7173 14.4050 -0.0000 -0.0000 0.0000 -83.9814 -5.7013 38.5689 41.1273 -48.7238 -19.2822 -0.0000 0.0000 -1.1311 24.0697 16.8614 7.3824 -7.1250 0.0000 -0.0000 -3.6874 48.3086 -0.3014 -0.0000 -0.0000 0.0000 75.7218 3.3202 56.8164 -127.0448 54.1200 -91.4482 0.0000 0.0000 58.5550 74.3653 -4.7487 -16.4789 7.1250 -0.0000 -0.0000 47.4798 24.2386 89.2930
1.9772 33.5452 -5.0163 179.0060 -13.4345 -169.4870 0.0000 0.0000 0.0000 -24.5520 0.0079 -21.0847 2.5609 9.9477 28.8077 0.3657 4.0316 -13.6262 0.5854 -4.8988 -13.6202 0.0000 0.0000 0.0000 20.9705 9.9118 -18.5021 -3.4260 -11.3547 33.4855 -0.9324 2.4700 -17.5839 -0.1996 -2.8765 7.9352 -5.2233 -2.6379 3.9678 0.6870 -3.7887 -1.4879 3.8832 -1.7666 -3.3808 -15.4236 -1.2193 -24.7620 5.5194 1.7157 30.6768 5.1309 -0.7276 14.5901 0.0000 0.0000 0.0000 -84.1794 -3.9162 38.1202 43.5130 -50.0188 -21.0930 -0.0000 0.0000 -1.2882 28.8646 17.3846 9.3525 -7.1250 0.0000 -0.0000 0.9141 49.6496 0.1048 0.0000 0.0000 0.0000 76.2604 6.8441 58.0937 -123.3492 55.3493 -88.4303 0.0000 0.0000 58.5538 76.2494 -4.4701 -17.6663 7.1250 -0.0000 -0.0000 48.7199 27.3107 91.3580
2.0025 33.5734 -5.0578 178.8940 -12.4819 -169.8200 0.0000 0.0000 0.0000 -24.6662 -0.1321 -20.3250 2.5265 9.8860 28.6083 0.3287 5.2963 -14.0772 0.4174 -4.1469 -11.4903 0.0000 0.0000 0.0000 20.9114 9.9266 -17.7511 -3.3156 -11.1893 32.9209 -0.8505 2.7821 -16.7081 -0.1657 -2.6222 7.2286 -4.6766 -2.2728 3.7355 0.7760 -3.2514 -1.3685 3.6241 -1.5163 -3.2041 -15.6345 -1.1394 -24.5052 5.0792 1.9456 31.0046 5.0217 -0.7729 14.6647 0.0000 0.0000 0.0000 -84.6676 -1.9005 38.4773 46.8366 -51.6372 -23.6702 -0.0000 0.0000 -0.4303 36.7135 18.7645 13.4897 -7.1250 0.0000 -0.0000 8.9275 52.7288 1.7089 0.0000 0.0000 0.0000 76.4903 9.6388 59.7124 -118.0384 56.8104 -84.0220 0.0000 0.0000 58.0789 74.2861 -5.6200 -19.1916 7.1250 -0.0000 -0.0000 46.3378 21.5664 86.4803
2.0302 33.6039 -5.0867 179.0490 -11.6602 -169.9020 0.0000 0.0000 0.0000 -24.5106 -0.1311 -20.2768 2.5362 9.9035 28.6647 0.1756 7.2042 -13.5808 0.6866 -5.2977 -14.7595 0.0000 0.0000 0.0000 21.1623 9.7022 -17.3288 -3.1758 -10.9744 32.1935 -0.7762 3.2405 -15.8647 -0.1719 -2.6708 7.3635 -3.9394 -1.7334 3.5928 0.7635 -2.4885 -1.3960 3.1509 -1.1497 -3.2542 -15.4867 -1.2193 -24.2054 4.6727 1.7726 31.3672 4.7964 -0.9396 14.8008 -0.0000 -0.0000 0.0000 -84.9742 0.5083 39.3366 52.6640 -54.0150 -28.3160 -0.0000 -0.0000 2.3909 45.9653 21.8164 21.0254 -7.1250 0.0000 -0.0000 20.3289 58.7442 7.0140 -0.0000 -0.0000 0.0000 77.1552 10.7353 60.3120 -112.9991 57.9038 -79.7776 0.0000 0.0000 57.8065 70.2358 -7.4404 -19.8189 7.1250 -0.0000 -0.0000 43.6812 10.1647 77.5278
